<svg width="31" height="21" viewBox="0 0 31 21" fill="none" xmlns="http://www.w3.org/2000/svg">
<path d="M30.0781 3.28125C30.1875 3.71875 30.2786 4.26562 30.3516 4.92188C30.4609 5.57812 30.5339 6.23438 30.5703 6.89062C30.6068 7.51042 30.625 8.09375 30.625 8.64062C30.6615 9.1875 30.6797 9.64323 30.6797 10.0078V10.5C30.6797 13.7812 30.4792 16.2057 30.0781 17.7734C29.8958 18.3932 29.5677 18.9401 29.0938 19.4141C28.6198 19.888 28.0547 20.2161 27.3984 20.3984C26.7057 20.5807 25.3932 20.7266 23.4609 20.8359C21.5286 20.9089 19.7604 20.9635 18.1562 21H15.75C9.51562 21 5.63281 20.7995 4.10156 20.3984C2.67969 19.9974 1.78646 19.1224 1.42188 17.7734C1.23958 17.0807 1.09375 16.1328 0.984375 14.9297C0.911458 13.6901 0.856771 12.651 0.820312 11.8125V10.5C0.820312 7.25521 1.02083 4.84896 1.42188 3.28125C1.60417 2.625 1.93229 2.0599 2.40625 1.58594C2.88021 1.11198 3.44531 0.783854 4.10156 0.601562C4.79427 0.419271 6.10677 0.291667 8.03906 0.21875C9.97135 0.109375 11.7396 0.0364583 13.3438 0H15.75C21.9844 0 25.8672 0.200521 27.3984 0.601562C28.0547 0.783854 28.6198 1.11198 29.0938 1.58594C29.5677 2.0599 29.8958 2.625 30.0781 3.28125ZM12.6875 14.9844L20.5078 10.5L12.6875 6.07031V14.9844Z" fill="white"/>
</svg>
