<svg width="26" height="26" viewBox="0 0 26 26" fill="none" xmlns="http://www.w3.org/2000/svg">
<path d="M8.59961 8.53711C9.88346 7.25326 11.4316 6.61133 13.2441 6.61133C15.0566 6.61133 16.5859 7.25326 17.832 8.53711C19.1159 9.7832 19.7578 11.3125 19.7578 13.125C19.7578 14.9375 19.1159 16.4857 17.832 17.7695C16.5859 19.0156 15.0566 19.6387 13.2441 19.6387C11.4316 19.6387 9.88346 19.0156 8.59961 17.7695C7.35352 16.4857 6.73047 14.9375 6.73047 13.125C6.73047 11.3125 7.35352 9.7832 8.59961 8.53711ZM10.2422 16.127C11.0729 16.9577 12.0736 17.373 13.2441 17.373C14.4147 17.373 15.4154 16.9577 16.2461 16.127C17.0768 15.2962 17.4922 14.2956 17.4922 13.125C17.4922 11.9544 17.0768 10.9538 16.2461 10.123C15.4154 9.29232 14.4147 8.87695 13.2441 8.87695C12.0736 8.87695 11.0729 9.29232 10.2422 10.123C9.41146 10.9538 8.99609 11.9544 8.99609 13.125C8.99609 14.2956 9.41146 15.2962 10.2422 16.127ZM21.0605 5.30859C21.3626 5.57292 21.5137 5.91276 21.5137 6.32812C21.5137 6.74349 21.3626 7.10221 21.0605 7.4043C20.7962 7.70638 20.4564 7.85742 20.041 7.85742C19.6257 7.85742 19.2669 7.70638 18.9648 7.4043C18.6628 7.10221 18.5117 6.74349 18.5117 6.32812C18.5117 5.91276 18.6628 5.57292 18.9648 5.30859C19.2669 5.00651 19.6257 4.85547 20.041 4.85547C20.4564 4.85547 20.7962 5.00651 21.0605 5.30859ZM25.875 7.91406C25.9128 8.93359 25.9316 10.6706 25.9316 13.125C25.9316 15.5794 25.9128 17.3164 25.875 18.3359C25.7617 20.6393 25.0632 22.4329 23.7793 23.7168C22.5332 24.9629 20.7585 25.6237 18.4551 25.6992C17.4355 25.7747 15.6986 25.8125 13.2441 25.8125C10.7897 25.8125 9.05273 25.7747 8.0332 25.6992C5.72982 25.5859 3.95508 24.9062 2.70898 23.6602C2.2181 23.207 1.82161 22.6784 1.51953 22.0742C1.21745 21.4701 0.990885 20.8848 0.839844 20.3184C0.726562 19.752 0.669922 19.0911 0.669922 18.3359C0.594401 17.3164 0.556641 15.5794 0.556641 13.125C0.556641 10.6706 0.594401 8.91471 0.669922 7.85742C0.783203 5.5918 1.46289 3.83594 2.70898 2.58984C3.95508 1.30599 5.72982 0.607422 8.0332 0.494141C9.05273 0.45638 10.7897 0.4375 13.2441 0.4375C15.6986 0.4375 17.4355 0.45638 18.4551 0.494141C20.7585 0.607422 22.5332 1.30599 23.7793 2.58984C25.0632 3.83594 25.7617 5.61068 25.875 7.91406ZM23.1562 20.6016C23.2695 20.2995 23.3639 19.9219 23.4395 19.4688C23.515 18.9779 23.5716 18.4115 23.6094 17.7695C23.6471 17.0898 23.666 16.5423 23.666 16.127C23.666 15.7116 23.666 15.1263 23.666 14.3711C23.666 13.6159 23.666 13.2005 23.666 13.125C23.666 13.0117 23.666 12.5964 23.666 11.8789C23.666 11.1237 23.666 10.5384 23.666 10.123C23.666 9.70768 23.6471 9.17904 23.6094 8.53711C23.5716 7.85742 23.515 7.29102 23.4395 6.83789C23.3639 6.34701 23.2695 5.95052 23.1562 5.64844C22.7031 4.47786 21.8913 3.66602 20.7207 3.21289C20.4186 3.09961 20.0221 3.00521 19.5312 2.92969C19.0781 2.85417 18.5117 2.79753 17.832 2.75977C17.1901 2.72201 16.6615 2.70312 16.2461 2.70312C15.8685 2.70312 15.2832 2.70312 14.4902 2.70312C13.735 2.70312 13.3197 2.70312 13.2441 2.70312C13.1686 2.70312 12.7533 2.70312 11.998 2.70312C11.2428 2.70312 10.6576 2.70312 10.2422 2.70312C9.82682 2.70312 9.2793 2.72201 8.59961 2.75977C7.95768 2.79753 7.39128 2.85417 6.90039 2.92969C6.44727 3.00521 6.06966 3.09961 5.76758 3.21289C4.59701 3.66602 3.78516 4.47786 3.33203 5.64844C3.21875 5.95052 3.12435 6.34701 3.04883 6.83789C2.97331 7.29102 2.91667 7.85742 2.87891 8.53711C2.84115 9.17904 2.82227 9.70768 2.82227 10.123C2.82227 10.5007 2.82227 11.0859 2.82227 11.8789C2.82227 12.6341 2.82227 13.0495 2.82227 13.125C2.82227 13.276 2.82227 13.6348 2.82227 14.2012C2.82227 14.7298 2.82227 15.1829 2.82227 15.5605C2.82227 15.9004 2.82227 16.3535 2.82227 16.9199C2.86003 17.4863 2.89779 17.9772 2.93555 18.3926C2.97331 18.7702 3.02995 19.1667 3.10547 19.582C3.18099 19.9974 3.25651 20.3372 3.33203 20.6016C3.82292 21.7721 4.63477 22.584 5.76758 23.0371C6.06966 23.1504 6.44727 23.2448 6.90039 23.3203C7.39128 23.3958 7.95768 23.4525 8.59961 23.4902C9.2793 23.528 9.80794 23.5469 10.1855 23.5469C10.6009 23.5469 11.1862 23.5469 11.9414 23.5469C12.7344 23.5469 13.1686 23.5469 13.2441 23.5469C13.3574 23.5469 13.7728 23.5469 14.4902 23.5469C15.2454 23.5469 15.8307 23.5469 16.2461 23.5469C16.6615 23.5469 17.1901 23.528 17.832 23.4902C18.5117 23.4525 19.0781 23.3958 19.5312 23.3203C20.0221 23.2448 20.4186 23.1504 20.7207 23.0371C21.8913 22.5462 22.7031 21.7344 23.1562 20.6016Z" fill="white"/>
</svg>
