<svg width="27" height="23" viewBox="0 0 27 23" fill="none" xmlns="http://www.w3.org/2000/svg">
<path d="M24.2051 6.39062C24.2402 6.53125 24.2578 6.75977 24.2578 7.07617C24.2578 8.93945 23.9062 10.8027 23.2031 12.666C22.5 14.4941 21.498 16.1816 20.1973 17.7285C18.9316 19.2402 17.2793 20.4707 15.2402 21.4199C13.2012 22.3691 10.9512 22.8438 8.49023 22.8438C5.39648 22.8438 2.56641 22.0176 0 20.3652C0.386719 20.4004 0.826172 20.418 1.31836 20.418C3.88477 20.418 6.1875 19.627 8.22656 18.0449C6.99609 18.0449 5.90625 17.6934 4.95703 16.9902C4.04297 16.252 3.41016 15.3379 3.05859 14.248C3.41016 14.2832 3.74414 14.3008 4.06055 14.3008C4.55273 14.3008 5.04492 14.248 5.53711 14.1426C4.69336 13.9668 3.9375 13.6152 3.26953 13.0879C2.60156 12.5605 2.07422 11.9277 1.6875 11.1895C1.30078 10.416 1.10742 9.58984 1.10742 8.71094V8.60547C1.88086 9.0625 2.70703 9.30859 3.58594 9.34375C1.93359 8.21875 1.10742 6.67188 1.10742 4.70312C1.10742 3.71875 1.37109 2.78711 1.89844 1.9082C3.26953 3.63086 4.93945 5.00195 6.9082 6.02148C8.91211 7.04102 11.0391 7.60352 13.2891 7.70898C13.2188 7.28711 13.1836 6.86523 13.1836 6.44336C13.1836 4.93164 13.7109 3.63086 14.7656 2.54102C15.8555 1.45117 17.1562 0.90625 18.668 0.90625C20.2852 0.90625 21.6387 1.48633 22.7285 2.64648C23.9941 2.40039 25.1719 1.96094 26.2617 1.32812C25.8398 2.62891 25.0312 3.64844 23.8359 4.38672C24.8906 4.24609 25.9453 3.94727 27 3.49023C26.2266 4.61523 25.2949 5.58203 24.2051 6.39062Z" fill="white"/>
</svg>
